<mxfile host="app.diagrams.net" modified="2023-09-05T09:35:20.563Z" agent="Mozilla/5.0 (Windows NT 10.0; Win64; x64) AppleWebKit/537.36 (KHTML, like Gecko) Chrome/116.0.0.0 Safari/537.36" etag="GOMJrkt8SnIMqdA5xpUp" version="21.7.1" type="google">
  <diagram id="akEowiJKr_ScigKzrRVM" name="Page-1">
    <mxGraphModel grid="1" page="1" gridSize="10" guides="1" tooltips="1" connect="1" arrows="1" fold="1" pageScale="1" pageWidth="689" pageHeight="517" math="0" shadow="0">
      <root>
        <mxCell id="0" />
        <mxCell id="1" parent="0" />
        <mxCell id="ZqUfRlEkvfrKnB71Ke32-17" value="P3" style="rounded=0;shadow=0;sketch=1;strokeWidth=2;fillColor=none;fontFamily=Ink Free;fontSize=17;spacing=20;fontStyle=1;strokeColor=#324AB2;fontColor=#324AB2;spacingBottom=5;" vertex="1" parent="1">
          <mxGeometry x="1240" y="1240" width="80" height="60" as="geometry" />
        </mxCell>
        <mxCell id="ZqUfRlEkvfrKnB71Ke32-20" value="1" style="rounded=0;shadow=0;sketch=1;strokeWidth=2;fillColor=none;fontFamily=Ink Free;fontSize=17;spacing=20;fontStyle=1;strokeColor=#324AB2;fontColor=#324AB2;spacingBottom=5;" vertex="1" parent="1">
          <mxGeometry x="760" y="1240" width="20" height="60" as="geometry" />
        </mxCell>
        <mxCell id="ZqUfRlEkvfrKnB71Ke32-21" value="2" style="rounded=0;shadow=0;sketch=1;strokeWidth=2;fillColor=none;fontFamily=Ink Free;fontSize=17;spacing=20;fontStyle=1;strokeColor=#324AB2;fontColor=#324AB2;spacingBottom=5;" vertex="1" parent="1">
          <mxGeometry x="780" y="1240" width="20" height="60" as="geometry" />
        </mxCell>
        <mxCell id="ZqUfRlEkvfrKnB71Ke32-22" value="3" style="rounded=0;shadow=0;sketch=1;strokeWidth=2;fillColor=none;fontFamily=Ink Free;fontSize=17;spacing=20;fontStyle=1;strokeColor=#324AB2;fontColor=#324AB2;spacingBottom=5;" vertex="1" parent="1">
          <mxGeometry x="800" y="1240" width="20" height="60" as="geometry" />
        </mxCell>
        <mxCell id="ZqUfRlEkvfrKnB71Ke32-23" value="4" style="rounded=0;shadow=0;sketch=1;strokeWidth=2;fillColor=none;fontFamily=Ink Free;fontSize=17;spacing=20;fontStyle=1;strokeColor=#324AB2;fontColor=#324AB2;spacingBottom=5;" vertex="1" parent="1">
          <mxGeometry x="820" y="1240" width="20" height="60" as="geometry" />
        </mxCell>
        <mxCell id="ZqUfRlEkvfrKnB71Ke32-32" value="1" style="rounded=0;shadow=0;sketch=1;strokeWidth=2;fillColor=none;fontFamily=Ink Free;fontSize=17;spacing=20;fontStyle=1;strokeColor=#324AB2;fontColor=#324AB2;spacingBottom=5;" vertex="1" parent="1">
          <mxGeometry x="840" y="1240" width="20" height="60" as="geometry" />
        </mxCell>
        <mxCell id="ZqUfRlEkvfrKnB71Ke32-33" value="2" style="rounded=0;shadow=0;sketch=1;strokeWidth=2;fillColor=none;fontFamily=Ink Free;fontSize=17;spacing=20;fontStyle=1;strokeColor=#324AB2;fontColor=#324AB2;spacingBottom=5;" vertex="1" parent="1">
          <mxGeometry x="860" y="1240" width="20" height="60" as="geometry" />
        </mxCell>
        <mxCell id="ZqUfRlEkvfrKnB71Ke32-34" value="3" style="rounded=0;shadow=0;sketch=1;strokeWidth=2;fillColor=none;fontFamily=Ink Free;fontSize=17;spacing=20;fontStyle=1;strokeColor=#324AB2;fontColor=#324AB2;spacingBottom=5;" vertex="1" parent="1">
          <mxGeometry x="880" y="1240" width="20" height="60" as="geometry" />
        </mxCell>
        <mxCell id="ZqUfRlEkvfrKnB71Ke32-35" value="4" style="rounded=0;shadow=0;sketch=1;strokeWidth=2;fillColor=none;fontFamily=Ink Free;fontSize=17;spacing=20;fontStyle=1;strokeColor=#324AB2;fontColor=#324AB2;spacingBottom=5;" vertex="1" parent="1">
          <mxGeometry x="900" y="1240" width="20" height="60" as="geometry" />
        </mxCell>
        <mxCell id="ZqUfRlEkvfrKnB71Ke32-36" value="1" style="rounded=0;shadow=0;sketch=1;strokeWidth=2;fillColor=none;fontFamily=Ink Free;fontSize=17;spacing=20;fontStyle=1;strokeColor=#324AB2;fontColor=#324AB2;spacingBottom=5;" vertex="1" parent="1">
          <mxGeometry x="920" y="1240" width="20" height="60" as="geometry" />
        </mxCell>
        <mxCell id="ZqUfRlEkvfrKnB71Ke32-37" value="2" style="rounded=0;shadow=0;sketch=1;strokeWidth=2;fillColor=none;fontFamily=Ink Free;fontSize=17;spacing=20;fontStyle=1;strokeColor=#324AB2;fontColor=#324AB2;spacingBottom=5;" vertex="1" parent="1">
          <mxGeometry x="940" y="1240" width="20" height="60" as="geometry" />
        </mxCell>
        <mxCell id="ZqUfRlEkvfrKnB71Ke32-38" value="3" style="rounded=0;shadow=0;sketch=1;strokeWidth=2;fillColor=none;fontFamily=Ink Free;fontSize=17;spacing=20;fontStyle=1;strokeColor=#324AB2;fontColor=#324AB2;spacingBottom=5;" vertex="1" parent="1">
          <mxGeometry x="960" y="1240" width="20" height="60" as="geometry" />
        </mxCell>
        <mxCell id="ZqUfRlEkvfrKnB71Ke32-39" value="4" style="rounded=0;shadow=0;sketch=1;strokeWidth=2;fillColor=none;fontFamily=Ink Free;fontSize=17;spacing=20;fontStyle=1;strokeColor=#324AB2;fontColor=#324AB2;spacingBottom=5;" vertex="1" parent="1">
          <mxGeometry x="980" y="1240" width="20" height="60" as="geometry" />
        </mxCell>
        <mxCell id="ZqUfRlEkvfrKnB71Ke32-40" value="1" style="rounded=0;shadow=0;sketch=1;strokeWidth=2;fillColor=none;fontFamily=Ink Free;fontSize=17;spacing=20;fontStyle=1;strokeColor=#324AB2;fontColor=#324AB2;spacingBottom=5;" vertex="1" parent="1">
          <mxGeometry x="1000" y="1240" width="20" height="60" as="geometry" />
        </mxCell>
        <mxCell id="ZqUfRlEkvfrKnB71Ke32-41" value="2" style="rounded=0;shadow=0;sketch=1;strokeWidth=2;fillColor=none;fontFamily=Ink Free;fontSize=17;spacing=20;fontStyle=1;strokeColor=#324AB2;fontColor=#324AB2;spacingBottom=5;" vertex="1" parent="1">
          <mxGeometry x="1020" y="1240" width="20" height="60" as="geometry" />
        </mxCell>
        <mxCell id="ZqUfRlEkvfrKnB71Ke32-42" value="3" style="rounded=0;shadow=0;sketch=1;strokeWidth=2;fillColor=none;fontFamily=Ink Free;fontSize=17;spacing=20;fontStyle=1;strokeColor=#324AB2;fontColor=#324AB2;spacingBottom=5;" vertex="1" parent="1">
          <mxGeometry x="1040" y="1240" width="20" height="60" as="geometry" />
        </mxCell>
        <mxCell id="ZqUfRlEkvfrKnB71Ke32-43" value="4" style="rounded=0;shadow=0;sketch=1;strokeWidth=2;fillColor=none;fontFamily=Ink Free;fontSize=17;spacing=20;fontStyle=1;strokeColor=#324AB2;fontColor=#324AB2;spacingBottom=5;" vertex="1" parent="1">
          <mxGeometry x="1060" y="1240" width="20" height="60" as="geometry" />
        </mxCell>
        <mxCell id="ZqUfRlEkvfrKnB71Ke32-45" value="P1" style="rounded=0;shadow=0;sketch=1;strokeWidth=2;fillColor=none;fontFamily=Ink Free;fontSize=17;spacing=20;fontStyle=1;strokeColor=#324AB2;fontColor=#324AB2;spacingBottom=5;" vertex="1" parent="1">
          <mxGeometry x="1080" y="1240" width="40" height="60" as="geometry" />
        </mxCell>
        <mxCell id="ZqUfRlEkvfrKnB71Ke32-46" value="P3" style="rounded=0;shadow=0;sketch=1;strokeWidth=2;fillColor=none;fontFamily=Ink Free;fontSize=17;spacing=20;fontStyle=1;strokeColor=#324AB2;fontColor=#324AB2;spacingBottom=5;" vertex="1" parent="1">
          <mxGeometry x="1120" y="1240" width="40" height="60" as="geometry" />
        </mxCell>
        <mxCell id="ZqUfRlEkvfrKnB71Ke32-47" value="P1" style="rounded=0;shadow=0;sketch=1;strokeWidth=2;fillColor=none;fontFamily=Ink Free;fontSize=17;spacing=20;fontStyle=1;strokeColor=#324AB2;fontColor=#324AB2;spacingBottom=5;" vertex="1" parent="1">
          <mxGeometry x="1160" y="1240" width="40" height="60" as="geometry" />
        </mxCell>
        <mxCell id="ZqUfRlEkvfrKnB71Ke32-48" value="P3" style="rounded=0;shadow=0;sketch=1;strokeWidth=2;fillColor=none;fontFamily=Ink Free;fontSize=17;spacing=20;fontStyle=1;strokeColor=#324AB2;fontColor=#324AB2;spacingBottom=5;" vertex="1" parent="1">
          <mxGeometry x="1200" y="1240" width="40" height="60" as="geometry" />
        </mxCell>
        <mxCell id="ZqUfRlEkvfrKnB71Ke32-49" value="0" style="text;fillColor=none;align=center;verticalAlign=middle;rounded=0;shadow=0;sketch=1;fontFamily=Ink Free;fontSize=17;fontStyle=1;spacingRight=0;fontColor=#324AB2;spacingBottom=5;" vertex="1" parent="1">
          <mxGeometry x="749" y="1310" width="25" height="20" as="geometry" />
        </mxCell>
        <mxCell id="ZqUfRlEkvfrKnB71Ke32-50" value="4" style="text;fillColor=none;align=center;verticalAlign=middle;rounded=0;shadow=0;sketch=1;fontFamily=Ink Free;fontSize=17;fontStyle=1;spacingRight=0;fontColor=#324AB2;spacingBottom=5;" vertex="1" parent="1">
          <mxGeometry x="830" y="1310" width="25" height="20" as="geometry" />
        </mxCell>
        <mxCell id="ZqUfRlEkvfrKnB71Ke32-52" value="20" style="text;fillColor=none;align=center;verticalAlign=middle;rounded=0;shadow=0;sketch=1;fontFamily=Ink Free;fontSize=17;fontStyle=1;spacingRight=0;fontColor=#324AB2;spacingBottom=5;" vertex="1" parent="1">
          <mxGeometry x="1150" y="1310" width="25" height="20" as="geometry" />
        </mxCell>
        <mxCell id="ZqUfRlEkvfrKnB71Ke32-54" value="24" style="text;fillColor=none;align=center;verticalAlign=middle;rounded=0;shadow=0;sketch=1;fontFamily=Ink Free;fontSize=17;fontStyle=1;spacingRight=0;fontColor=#324AB2;spacingBottom=5;" vertex="1" parent="1">
          <mxGeometry x="1228" y="1310" width="25" height="20" as="geometry" />
        </mxCell>
        <mxCell id="ZqUfRlEkvfrKnB71Ke32-55" value="8" style="text;fillColor=none;align=center;verticalAlign=middle;rounded=0;shadow=0;sketch=1;fontFamily=Ink Free;fontSize=17;fontStyle=1;spacingRight=0;fontColor=#324AB2;spacingBottom=5;" vertex="1" parent="1">
          <mxGeometry x="907.5" y="1310" width="25" height="20" as="geometry" />
        </mxCell>
        <mxCell id="ZqUfRlEkvfrKnB71Ke32-56" value="12" style="text;fillColor=none;align=center;verticalAlign=middle;rounded=0;shadow=0;sketch=1;fontFamily=Ink Free;fontSize=17;fontStyle=1;spacingRight=0;fontColor=#324AB2;spacingBottom=5;" vertex="1" parent="1">
          <mxGeometry x="987.5" y="1310" width="25" height="20" as="geometry" />
        </mxCell>
        <mxCell id="ZqUfRlEkvfrKnB71Ke32-57" value="16" style="text;fillColor=none;align=center;verticalAlign=middle;rounded=0;shadow=0;sketch=1;fontFamily=Ink Free;fontSize=17;fontStyle=1;spacingRight=0;fontColor=#324AB2;spacingBottom=5;" vertex="1" parent="1">
          <mxGeometry x="1068" y="1310" width="25" height="20" as="geometry" />
        </mxCell>
        <mxCell id="ZqUfRlEkvfrKnB71Ke32-58" value="28" style="text;fillColor=none;align=center;verticalAlign=middle;rounded=0;shadow=0;sketch=1;fontFamily=Ink Free;fontSize=17;fontStyle=1;spacingRight=0;fontColor=#324AB2;spacingBottom=5;" vertex="1" parent="1">
          <mxGeometry x="1310" y="1310" width="25" height="20" as="geometry" />
        </mxCell>
      </root>
    </mxGraphModel>
  </diagram>
</mxfile>
